<svg width="118" height="20" viewBox="0 0 118 20" fill="none" xmlns="http://www.w3.org/2000/svg">
<path d="M12.4877 0.277252H8.95274L6.74632 10.0116L4.56364 0.277252H0.981201V15.7732H3.30623V4.36613L6.03458 15.7732H7.41061L10.1627 4.36613V15.7732H12.4877V0.277252ZM22.1674 4.22674L20.5779 12.1025L18.846 4.22674H16.5209L19.1069 14.7742C19.2256 15.2621 19.273 15.5176 19.273 15.7964C19.273 16.9348 18.4664 17.6782 17.2327 17.6782C17.1852 17.6782 17.0192 17.6782 16.8768 17.655V19.8853C20.1983 19.8853 21.0761 19.0722 21.8827 15.2853L24.445 4.22674H22.1674ZM36.7107 9.50046H38.324C39.9136 9.50046 40.91 9.19844 41.6455 8.50147C42.4996 7.71158 42.9029 6.54996 42.9029 4.87724C42.9029 3.22775 42.4996 2.06614 41.6455 1.27624C40.91 0.579271 39.9136 0.277252 38.324 0.277252H34.2671V15.7732H36.7107V9.50046ZM36.7107 7.2934V2.48432H37.7784C39.7475 2.48432 40.3644 3.06512 40.3644 4.87724C40.3644 6.71259 39.7475 7.2934 37.7784 7.2934H36.7107ZM54.101 8.22269C54.101 6.41057 53.8875 5.62067 53.1757 4.9237C52.5352 4.31966 51.6099 3.99441 50.4948 3.99441C49.3561 3.99441 48.4308 4.31966 47.7902 4.9237C47.1022 5.62067 46.8649 6.41057 46.8649 8.22269V11.7772C46.8649 13.5893 47.1022 14.3792 47.7902 15.0762C48.4308 15.6802 49.3561 16.0055 50.4948 16.0055C51.6099 16.0055 52.5352 15.6802 53.1757 15.0762C53.8875 14.3792 54.101 13.5893 54.101 11.7772V8.22269ZM49.0714 8.08329C49.0714 6.61966 49.4984 5.96916 50.4711 5.96916C51.4676 5.96916 51.8946 6.59643 51.8946 8.08329V11.9166C51.8946 13.3802 51.4676 14.0308 50.4711 14.0308C49.4984 14.0308 49.0714 13.3802 49.0714 11.9166V8.08329ZM58.4426 4.22674V15.7732H60.6491V8.82673C60.6491 7.73481 60.7202 7.36309 61.0287 6.96814C61.3371 6.57319 61.8116 6.36411 62.4047 6.36411C62.7606 6.36411 63.0453 6.41057 63.4723 6.57319V4.06411C62.0963 4.06411 61.2422 4.69138 60.6491 6.22471V4.22674H58.4426ZM72.8436 4.22674H70.827V1.06715H68.6206V4.22674H66.9124V6.15501H68.6206V12.5439C68.6206 14.0075 68.7392 14.5651 69.1663 15.0762C69.6408 15.657 70.4474 15.9358 71.5625 15.9358C72.0607 15.9358 72.4403 15.8893 73.0571 15.7732V13.8217C72.7012 13.9378 72.4877 13.9611 72.203 13.9611C71.2303 13.9611 70.827 13.4732 70.827 12.3116V6.15501H72.8436V4.22674ZM81.2896 4.22674H79.4391V3.59946C79.4391 2.46108 79.7001 2.08937 80.483 2.08937C80.7914 2.08937 80.8626 2.1126 81.4794 2.29846V0.277252C80.8863 0.161089 80.5067 0.114624 80.0085 0.114624C79.0832 0.114624 78.4426 0.300484 77.9682 0.695431C77.3988 1.16008 77.2327 1.74088 77.2327 3.13482V4.22674H75.6431V6.15501H77.2327V15.7732H79.4391V6.15501H81.2896V4.22674ZM92.2267 8.22269C92.2267 6.41057 92.0132 5.62067 91.3015 4.9237C90.6609 4.31966 89.7356 3.99441 88.6206 3.99441C87.4818 3.99441 86.5565 4.31966 85.916 4.9237C85.2279 5.62067 84.9907 6.41057 84.9907 8.22269V11.7772C84.9907 13.5893 85.2279 14.3792 85.916 15.0762C86.5565 15.6802 87.4818 16.0055 88.6206 16.0055C89.7356 16.0055 90.6609 15.6802 91.3015 15.0762C92.0132 14.3792 92.2267 13.5893 92.2267 11.7772V8.22269ZM87.1971 8.08329C87.1971 6.61966 87.6241 5.96916 88.5969 5.96916C89.5933 5.96916 90.0203 6.59643 90.0203 8.08329V11.9166C90.0203 13.3802 89.5933 14.0308 88.5969 14.0308C87.6241 14.0308 87.1971 13.3802 87.1971 11.9166V8.08329ZM98.7748 0.277252H96.5684V15.7732H98.7748V0.277252ZM105.418 4.22674H103.211V15.7732H105.418V4.22674ZM105.418 0.277252H103.211V2.53078H105.418V0.277252ZM117.019 8.22269C117.019 6.41057 116.806 5.62067 116.094 4.9237C115.453 4.31966 114.528 3.99441 113.413 3.99441C112.274 3.99441 111.349 4.31966 110.708 4.9237C110.02 5.62067 109.783 6.41057 109.783 8.22269V11.7772C109.783 13.5893 110.02 14.3792 110.708 15.0762C111.349 15.6802 112.274 16.0055 113.413 16.0055C114.528 16.0055 115.453 15.6802 116.094 15.0762C116.806 14.3792 117.019 13.5893 117.019 11.7772V8.22269ZM111.99 8.08329C111.99 6.61966 112.417 5.96916 113.389 5.96916C114.386 5.96916 114.813 6.59643 114.813 8.08329V11.9166C114.813 13.3802 114.386 14.0308 113.389 14.0308C112.417 14.0308 111.99 13.3802 111.99 11.9166V8.08329Z" fill="#333333"/>
</svg>
